<?xml version="1.0" standalone="no"?>
<!DOCTYPE svg PUBLIC "-//W3C//DTD SVG 1.1//EN" "http://www.w3.org/Graphics/SVG/1.1/DTD/svg11.dtd" >
<svg xmlns="http://www.w3.org/2000/svg">
<metadata>
Created by FontForge 20120731 at Wed Dec 14 22:25:07 2016
 By admin
</metadata>
<defs>
<font id="iconfont" horiz-adv-x="1024" >
  <font-face 
    font-family="iconfont"
    font-weight="500"
    font-stretch="normal"
    units-per-em="1024"
    panose-1="2 0 6 3 0 0 0 0 0 0"
    ascent="896"
    descent="-128"
    x-height="792"
    bbox="18 -208 1006 886"
    underline-thickness="0"
    underline-position="0"
    unicode-range="U+0078-E7D6"
  />
<missing-glyph 
 />
    <glyph glyph-name=".notdef" 
 />
    <glyph glyph-name=".notdef" 
 />
    <glyph glyph-name=".null" horiz-adv-x="0" 
 />
    <glyph glyph-name="nonmarkingreturn" horiz-adv-x="341" 
 />
    <glyph glyph-name="x" unicode="x" horiz-adv-x="1001" 
d="M281 543q-27 -1 -53 -1h-83q-18 0 -36.5 -6t-32.5 -18.5t-23 -32t-9 -45.5v-76h912v41q0 16 -0.5 30t-0.5 18q0 13 -5 29t-17 29.5t-31.5 22.5t-49.5 9h-133v-97h-438v97zM955 310v-52q0 -23 0.5 -52t0.5 -58t-10.5 -47.5t-26 -30t-33 -16t-31.5 -4.5q-14 -1 -29.5 -0.5
t-29.5 0.5h-32l-45 128h-439l-44 -128h-29h-34q-20 0 -45 1q-25 0 -41 9.5t-25.5 23t-13.5 29.5t-4 30v167h911zM163 247q-12 0 -21 -8.5t-9 -21.5t9 -21.5t21 -8.5q13 0 22 8.5t9 21.5t-9 21.5t-22 8.5zM316 123q-8 -26 -14 -48q-5 -19 -10.5 -37t-7.5 -25t-3 -15t1 -14.5
t9.5 -10.5t21.5 -4h37h67h81h80h64h36q23 0 34 12t2 38q-5 13 -9.5 30.5t-9.5 34.5q-5 19 -11 39h-368zM336 498v228q0 11 2.5 23t10 21.5t20.5 15.5t34 6h188q31 0 51.5 -14.5t20.5 -52.5v-227h-327z" />
    <glyph glyph-name="gouwuche" unicode="&#xe600;" 
d="M508 878q-97 0 -185 -37.5t-152 -101.5t-101.5 -152t-37.5 -185t37.5 -185.5t101.5 -152t152 -101.5t185 -38t185.5 38t152 101.5t101.5 152t38 185.5t-38 185t-101.5 152t-152 101.5t-185.5 37.5zM379 158q-15 0 -26 10.5t-11 26t11 26t26 10.5t25.5 -10.5t10.5 -26
t-10.5 -26t-25.5 -10.5zM602.5 148q-20.5 0 -35.5 14.5t-15 35.5t15 35.5t35.5 14.5t35.5 -14.5t15 -35.5t-15 -35.5t-35.5 -14.5zM826 593q0 -11 -8 -18.5t-20 -7.5h-86l-98 -279q-7 -19 -27 -17h-2h-264q-11 0 -19 7.5t-8 17.5v8q0 11 8 18.5t19 7.5h244l13 37h-302
q-10 0 -17.5 7.5t-7.5 18.5v8q0 11 7.5 18.5t17.5 7.5h323v0l13 36h-363q-11 0 -18.5 7.5t-7.5 17.5v8q0 11 7.5 18.5t18.5 7.5h384l31 88q5 16 23 17q2 1 4 1h107q12 0 20 -7.5t8 -18.5v-9z" />
    <glyph glyph-name="weixin" unicode="&#xe601;" horiz-adv-x="1000" 
d="M318 518q13 0 21.5 8t8.5 21.5t-8.5 22t-21.5 8.5q-14 0 -25 -8.5t-11 -21.5t11 -21.5t25 -8.5zM484 578q-14 0 -24.5 -8.5t-10.5 -21.5t10.5 -21.5t24.5 -8.5t22 8t8 21.5t-8 22t-22 8.5zM692 355q13 0 21.5 7.5t8.5 17t-8.5 16.5t-21.5 7q-8 0 -15.5 -7.5t-7.5 -16.5
t7.5 -16.5t15.5 -7.5zM562 355q13 0 21 7.5t8 17t-8 16.5t-21 7q-9 0 -16.5 -7.5t-7.5 -16.5t7.5 -16.5t16.5 -7.5zM25 391.5q0 -95.5 37 -182t100 -149.5t149.5 -100t182 -37t182 37t149.5 100t100 149.5t37 182t-37 182t-100 149.5t-149.5 100t-182 37t-182 -37
t-149.5 -100t-100 -149.5t-37 -182zM612 513q-84 0 -143 -56t-59 -135q0 -25 7 -50q-11 -1 -22 -1q-23 0 -83 12l-83 -43l24 73q-95 67 -95 162q0 86 69.5 145.5t167.5 59.5q88 0 156.5 -48t83.5 -121q-12 2 -23 2zM829 325q0 -75 -83 -139l18 -60l-66 36q-47 -12 -71 -12
q-84 0 -143 51t-59 123.5t59 124t143 51.5q81 0 141.5 -52t60.5 -123z" />
    <glyph glyph-name="kafei" unicode="&#xe6aa;" 
d="M975 284q-25 37 -82 37h-55l-2 58h-766q-1 -6 -1.5 -16.5t0 -42t4.5 -62t16 -70t30 -72.5l16.5 -27.5t16 -23.5t13.5 -18t14.5 -17t13 -13.5l14.5 -14.5l14 -14q26 -27 59 -42t52 -16l20 -2h201q8 0 21.5 1.5t48 16t60.5 40.5l17.5 17.5t20.5 21.5q57 3 104 20.5t73 38
t46.5 47.5t26.5 40t9 25q20 51 -5 88v0zM916 220l-1 -4q-1 -4 -3 -9.5t-13 -22t-24.5 -30t-39 -29t-56.5 -23.5q1 3 4 7.5t4 6.5q32 58 44 136h62q21 0 25 -6q5 -7 -2 -26v0zM856 -122h-804q-24 -26 66 -51q81 -22 201 -35h270q8 1 23 3t54 7.5t71.5 12.5t65.5 16.5
t47.5 21.5t5.5 25zM525 442q0 -2 -2.5 -3.5t-5.5 -2t-4 -0.5q-47 29 -59.5 67t1.5 73t47 68q6 5 20 18.5t18.5 18.5t14.5 16t14 19t9 20t7 25t2 28q0 5 7.5 6.5t9.5 -1.5q21 -30 27.5 -56t0 -45.5t-19 -38t-29.5 -34t-32 -35t-26 -39t-11.5 -46.5t11.5 -58zM350 442
q0 -2 -2 -3.5t-5 -2t-5 -0.5q-46 29 -59 67t1 73t48 68q6 6 19.5 19t18.5 18t15 16t13.5 19t9 20t7 25t1.5 28q0 5 7.5 6.5t9.5 -1.5q22 -30 28.5 -56t0 -45.5t-19 -38t-30 -34t-32.5 -35t-26 -39t-11.5 -46.5t11.5 -58v0z" />
    <glyph glyph-name="yumaoqiu1" unicode="&#xe68c;" 
d="M454 704l-62 31l56 -409l24 31l31 -31v415zM578 704l-68 37l6 -409l37 37l25 -49l56 408zM652 308l124 396l-68 -31l-68 55l-44 -402l38 25zM788 704l-117 -396q12 7 24 17l-12 -41v5l-21 4l3 8h-13l-2 -6h-4h-53l3 31l-18 -6l-3 -25h-59v31h-13v-31h-53l-2 25h-19l3 -25
h-48l-9 30l17 38l37 -37l-43 409l-62 -62l-81 31l118 -377h-5l11 -34l-28 -9l-15 42l-4 4q11 -10 22 -16q1 0 -25 97.5t-53 195l-27 97.5l-56 -81q-3 -19 0 -49q16 -69 50.5 -130.5t74.5 -100.5l73 -227l-12 -50h285q-4 49 -6 50l67 224q78 72 131 240v43zM434 277l9 -68
h-33l-20 68h44zM343 271l29 5l22 -67h-2l-23 -10zM398 116l-24 68l18 6l8 1l24 -74h13l-22 76l29 3l10 -80h-56zM503 116h-37l-7 79l44 -4v-75zM503 209h-45l-6 68h51v-68zM591 277h54l-22 -74l-41 4zM559 116h-43v74h50zM516 209v68h58l-6 -68h-52zM572 116l8 73l37 -4
l-21 -69h-24zM634 116h-23l19 68h22l4 7zM657 196l-22 5l22 76h24zM367 35v-43q5 -50 42.5 -89.5t69.5 -40.5q55 -7 68 0q47 3 81.5 50.5t29.5 122.5h-291z" />
    <glyph glyph-name="bycar1" unicode="&#xe69d;" horiz-adv-x="1031" 
d="M985 609q-9 12 -24 12h-717l-45 158q-6 22 -29 23l-106 3q-13 1 -22.5 -8t-9.5 -21.5t8.5 -22t21.5 -9.5l84 -3l166 -589v0q2 -5 4 -9l1 -1q2 -3 6 -6v-1q5 -3 9 -4v0q4 -1 9 -1h1v0h526q11 0 19.5 6.5t10.5 17.5l93 430q3 14 -6 25v0v0zM923 559l-24 -107v0h-599
l-27 107h650zM873 329h-542l-15 62h570zM366 191l-19 77h513l-17 -77h-477zM458.5 99q-27.5 0 -47 -20t-19.5 -48t19.5 -48t47 -20t47 20t19.5 48t-19.5 48t-47 20zM770.5 99q-27.5 0 -47 -20t-19.5 -48t19.5 -48t47 -20t47 20t19.5 48t-19.5 48t-47 20z" />
    <glyph glyph-name="bycar" unicode="&#xe604;" 
d="M514 857q-97 0 -184.5 -37.5t-151 -101t-101 -151t-37.5 -184t37.5 -184t101 -151t151 -101t184 -37.5t184 37.5t151 101t101 151t37.5 184t-37.5 184t-101 151t-151 101t-183.5 37.5v0v0zM385 141q-15 0 -25.5 10.5t-10.5 25.5t10.5 26t25.5 11t25.5 -11t10.5 -26
t-10.5 -25.5t-25.5 -10.5v0v0zM607 131q-20 0 -35 14.5t-15 35t15 35.5t35.5 15t35 -15t14.5 -35.5t-14.5 -35t-35.5 -14.5v0v0zM829 573q0 -10 -8 -17.5t-19 -7.5h-86l-98 -277q-6 -19 -26 -18h-2h-262q-12 0 -19.5 7.5t-7.5 18.5v8q0 10 7.5 17.5t19.5 7.5h242l13 37h-300
q-10 0 -17.5 7.5t-7.5 18.5v7q0 11 7.5 18.5t17.5 7.5h321l13 36h-361q-11 0 -18.5 7.5t-7.5 17.5v8q0 11 7.5 18.5t18.5 7.5h382l30 87q6 16 23 17q3 1 4 1h107q11 0 19 -7.5t8 -18.5v-9zM829 573z" />
    <glyph glyph-name="my" unicode="&#xe66e;" 
d="M970 -86q-18 129 -102 228t-207 138q82 39 132 116.5t50 171.5q0 131 -93.5 224.5t-225 93.5t-225 -93.5t-93.5 -224.5q0 -94 50.5 -171.5t132.5 -116.5q-122 -39 -206.5 -137.5t-102.5 -226.5q-2 -5 -2 -11q0 -12 8 -20t20 -8t20.5 8t8.5 20v1q20 145 131 242.5
t259 97.5t258.5 -97t131.5 -241v-3q0 -12 8.5 -20t20 -8t20 8t8.5 20q0 5 -2 9v0zM525 305q-109 0 -186 77t-77 186t77 186t186 77t186 -77t77 -186t-77 -186t-186 -77v0zM525 305z" />
    <glyph glyph-name="return" unicode="&#xe635;" horiz-adv-x="1025" 
d="M992 444h-732l336 336l-84 84l-480 -480l480 -479l84 84l-336 335h731v120h1z" />
    <glyph glyph-name="more" unicode="&#xe602;" 
d="M521 455q-26 0 -44.5 -18t-18.5 -44.5t18.5 -44.5t44.5 -18t44.5 18t18.5 44.5t-18.5 44.5t-44.5 18zM310 455q-26 0 -44.5 -18t-18.5 -44.5t18.5 -44.5t44.5 -18t44.5 18t18.5 44.5t-18.5 44.5t-44.5 18zM732 455q-26 0 -44.5 -18t-18.5 -44.5t18.5 -44.5t44.5 -18
t44.5 18t18.5 44.5t-18.5 44.5t-44.5 18zM967 576q-38 89 -106 157t-157 106q-91 38 -192 38q-100 0 -192 -38q-89 -38 -157 -106q-69 -68 -106 -157q-39 -92 -39 -192q0 -101 39 -193q38 -89 106 -157t157 -106q92 -38 192 -38t192 38q89 38 157 106q69 69 106 157
q39 92 39 192.5t-39 192.5zM512 -55q-89 0 -170 35t-140 93.5t-93.5 140t-34.5 170.5t34.5 170t93.5 139.5t140 93.5t170 35t170 -35t140 -93.5t93.5 -139.5t34.5 -170t-34.5 -170.5t-93.5 -140t-140 -93.5t-170 -35z" />
    <glyph glyph-name="order" unicode="&#xe60c;" horiz-adv-x="1025" 
d="M497 577q10 0 16 9t1 19q-6 11 -19 10q-19 -2 -17 -20q0 -8 5.5 -13t13.5 -5zM512 864q-98 0 -186.5 -38t-153 -102.5t-102.5 -153t-38 -186.5t38 -186.5t102.5 -153t153 -102.5t186.5 -38t186.5 38t153 102.5t102.5 153t38 186.5t-38 186.5t-102.5 153t-153 102.5
t-186.5 38zM420 611h31q1 25 27 30h37q25 -5 27 -30h15.5t15.5 -1v-60h-77t-76 1v29.5v30.5zM380 249q4 -1 19 -1h80q-3 -50 21 -87l3 -4q-19 0 -56.5 -0.5t-58.5 0.5q-2 0 -14.5 -0.5t-15.5 0.5q-12 1 -28 11q-12 8 -20 19q-3 4 -5 7q-6 11 -7 24v299q2 25 19.5 44t42.5 19
h30v-60v0v-1h213v61h29q26 0 43 -18.5t20 -42.5v-3v-169q-39 24 -81 24q15 7 19 21q3 14 -4.5 24t-18.5 12q-4 1 -20 1h-162h-40q-17 -1 -25 -15q-10 -16 1 -32q9 -13 27 -13h202q-56 -10 -88 -55l-4 -6h-10h-71q-35 0 -39 -1q-16 -4 -21 -20q-4 -13 2.5 -23.5t17.5 -14.5z
M726 228q-3 -42 -31 -70q-29 -28 -70 -31h-12v1q-32 1 -58 20q-24 17 -35 44q-14 32 -6 67q7 28 29 50q21 21 50 28q35 8 68 -6q26 -11 44 -34q19 -26 21 -58v-11zM684 265q-5 6 -10 6q-5 -1 -18 -13l-14.5 -14.5l-14.5 -14.5q-13 -13 -18 -12q-2 0 -9 7q-3 3 -8 9t-7 9
q-6 6 -11 5q-4 0 -12 -9q-1 -1 -4 -3t-4 -4t-2 -5q0 -5 9 -16l25 -25q1 -1 3.5 -4t3.5 -4t3.5 -3t5 -2.5t5.5 -0.5t6 2q2 1 9 8t55 54q1 1 4.5 4t4.5 5q6 7 5 11q0 2 -7 10z" />
    <glyph glyph-name="kafei1" unicode="&#xe677;" horiz-adv-x="1036" 
d="M465 615q-3 -20 -18 -43t-24.5 -32.5t-17.5 -15.5q-5 -5 -13 -5q-9 0 -15 7q-6 6 -5.5 14.5t7.5 14.5q13 11 28 30.5t18 35.5q2 15 -2.5 24t-18.5 23q-27 29 -32 55q-4 16 -1.5 32.5t6 29t10.5 24.5t13 20t13 15t10 9.5t5 4.5q6 5 14.5 4t13.5 -8t4 -15t-8 -13
q-13 -11 -25 -28q-21 -34 -15 -68q2 -14 22 -34q11 -12 17 -20t11.5 -24.5t2.5 -36.5zM614 615q-3 -20 -18 -43t-24.5 -32.5t-16.5 -15.5q-6 -5 -13 -5q-10 0 -16 7q-5 6 -4.5 14.5t6.5 14.5q14 11 29 30.5t17 35.5q3 15 -2 24t-18 23q-28 29 -32 55q-4 16 -1.5 32.5t5.5 29
t10.5 24.5t13 20t13 15t10 9.5l4.5 4.5q7 5 15.5 4t13.5 -8t4 -15t-8 -13q-13 -10 -25 -28q-22 -34 -15 -68q2 -14 21 -34q12 -12 18 -20t11 -24.5t2 -36.5zM315 615q-3 -20 -18 -43t-24.5 -32.5t-16.5 -15.5q-6 -5 -14 -5q-9 0 -15 7q-6 6 -5 14.5t7 14.5q13 11 28 30.5
t18 35.5q2 15 -2.5 24t-17.5 23q-28 29 -33 55q-4 16 -1.5 32.5t6 29t11 24.5t13 20t12.5 15t10 9.5t5 4.5q7 5 15 4t13 -8t4 -15t-7 -13q-14 -11 -25 -28q-22 -34 -16 -68q3 -14 22 -34q12 -12 18 -20t11 -24.5t2 -36.5zM888 412q-46 0 -80 -31v76q0 8 -6 14t-15 6h-730
q-8 0 -14 -6t-6 -14v-224q0 -93 33 -166q26 -58 73 -99q53 -48 107 -61h5h304h4q62 12 122 58q54 40 84 98q39 72 39 166v56q1 3 1 7q0 33 23 56t56 23q32 0 50.5 -23t13.5 -56q-7 -41 -25.5 -74.5t-41 -54.5t-48.5 -36t-46.5 -20.5t-35.5 -5.5q-8 0 -14 -6t-6 -14.5
t6 -14.5t14 -6q21 0 49.5 9t60 28.5t59 46t46.5 65.5t22 83q3 50 -26.5 85t-77.5 35zM767 229q0 -83 -33 -146q-26 -50 -72 -85q-50 -38 -105 -50h-299q-46 13 -88 50q-40 36 -63 86q-29 64 -29 149v203h689v-207z" />
    <glyph glyph-name="yumaoqiu2" unicode="&#xe60d;" 
d="M377 752l-2 5l-3 4q-16 33 -47 52.5t-68 19.5q-54 0 -92 -39t-38 -94q0 -14 1.5 -24.5t2.5 -14.5l1 -4l23 -62q115 -51 270 -64zM512 528q22 0 46 1l55 270q-46 34 -102 34t-102 -35l54 -269q25 -1 49 -1zM491 212l-56 282q-137 9 -251 49l154 -315q84 -15 154 -17
l-0.5 0.5zM473 492l38 -229l37 229q-20 -1 -36 -1q-17 0 -39 1zM765 833q-37 0 -67.5 -19.5t-47.5 -51.5l-0.5 -1l-1.5 -3t-2 -5t-2 -7l-2 -8t-2 -8.5t-2 -8t-2 -7.5t-2 -7l-37 -176q154 12 269 63l22 63q7 21 7 43q0 55 -38 94t-92 39zM350 188q-12 -32 -12 -77
q0 -73 51 -125t122.5 -52t122.5 52t51 125q0 44 -13 77h-322zM530 212v-0.5v-0.5q66 1 151 17l156 314q-114 -40 -251 -49z" />
    <glyph glyph-name="right" unicode="&#xe637;" 
d="M724 363l0.5 1t0.5 2q7 13 4.5 28t-13.5 26l-344 325q-14 13 -33 12.5t-32.5 -14.5t-13 -33.5t14.5 -32.5l309 -292l-308 -296q-14 -13 -14 -32.5t13 -33.5q14 -14 34 -14q19 0 32 13l341 328l0.5 1t1 1.5l1.5 1.5t6 9v0zM724 363z" />
    <glyph glyph-name="pingpangqiu" unicode="&#xe615;" 
d="M783 508q0 93 -46 172t-125 125t-172 46t-172 -46t-125 -125t-46 -172q0 -62 21 -119h644q21 57 21 119zM498 125h-143q-13 0 -22 -9t-9 -22v-147q0 -13 9 -22t22 -9h143q13 0 22 9t9 22v147q0 13 -9 22t-22 9zM440 165q87 0 161.5 40.5t121.5 109.5h-566
q47 -69 121.5 -109.5t161.5 -40.5zM834 223q-38 0 -64.5 -27t-26.5 -64.5t26.5 -64.5t64.5 -27t64.5 27t26.5 64.5t-26.5 64.5t-64.5 27z" />
    <glyph glyph-name="returnmoney" unicode="&#xe67e;" 
d="M512 864q-98 0 -186.5 -38t-153 -102.5t-102.5 -153t-38 -186.5t38 -186.5t102.5 -153t153 -102.5t186.5 -38t186.5 38t153 102.5t102.5 153t38 186.5t-38 186.5t-102.5 153t-153 102.5t-186.5 38zM848 267q-26 -61 -73.5 -108.5t-108.5 -73.5q-64 -27 -134 -27
q-127 0 -223 83q-8 6 -9 17t6 19q8 9 20 9q9 0 16 -6q82 -70 190 -70q121 0 206 85.5t85 205.5t-85 205.5t-206 85.5q-104 0 -185.5 -67t-100.5 -169l46 41q8 6 17 6q12 0 20 -9q7 -8 6.5 -18.5t-9.5 -17.5l-98 -86q-2 -2 -4 -3v0v0q-1 0 -2 -1v0v0v0h-1l-1 -1v0v0
q-1 0 -2 -1v0v0h-2h-1q-1 0 -2 -1v0v0h-2h-1v0v0h-1v0v0l-1 1v0h-1h-1h-1v0v0h-1v0v0l-2 1v0q-2 1 -3 2v0h-2v0q0 1 -1 1l-1 1h-1v1v0h-0.5t-0.5 1v0v0l-1 1v0l-1 1h-1v1v0l-0.5 0.5l-0.5 0.5v0q0 1 -1 2v0q0 1 -1 2l-53 119q-4 10 0 20t13 14q5 3 11 3q17 0 23 -16l18 -38
q6 26 17 52q26 61 73.5 108.5t108.5 73.5q64 27 134 27t134 -27q61 -26 108.5 -73.5t73.5 -108.5q27 -64 27 -134t-27 -134zM657 486q6 0 6 -6v-50q0 -3 -2 -4.5t-4 -1.5h-94v-42h94q6 0 6 -6v-50q0 -6 -6 -6h-94v-94q0 -13 -9 -22t-22 -9t-22 9t-9 22v94h-94q-6 0 -6 6v50
q0 6 6 6h94v42h-94q-6 0 -6 6v50q0 6 6 6h50l-51 51q-9 9 -9 22t9 22t22 9t22 -9l82 -82l82 82q9 9 22 9t22 -9t9 -22t-9 -22l-51 -51h50z" />
    <glyph glyph-name="card" unicode="&#xe7d5;" 
d="M608 273h43v-43h-43v43zM608 273zM714 273h43v-43h-43v43zM714 273zM512 862q-97 0 -185.5 -38t-152.5 -102t-102 -152.5t-38 -185.5t38 -185.5t102 -152.5t152.5 -101.5t185.5 -37.5t185.5 37.5t152.5 101.5t101.5 152.5t37.5 185.5t-37.5 185.5t-101.5 152.5
t-152.5 102t-185.5 38v0zM808 201q0 -2 -0.5 -4.5t-3 -9.5t-6.5 -12.5t-12 -11t-19 -7.5h-507q-3 1 -8.5 2t-15.5 11.5t-12 28.5l-2 233h586v-230zM808 578v-72l-586 1l2 73q1 9 5.5 15.5t9.5 9.5t10 5t8 2h3h506q19 -1 29.5 -10t11.5 -16l1 -8v0zM808 578zM660 273h43v-43
h-43v43zM660 273z" />
    <glyph glyph-name="not-choose" unicode="&#xe632;" 
d="M512 844q190 0 325 -135t135 -325t-135 -325t-325 -135t-325 135t-135 325t135 325t325 135zM512 864q-131 0 -241.5 -64t-174.5 -174.5t-64 -241.5t64 -241.5t174.5 -174.5t241.5 -64t241.5 64t174.5 174.5t64 241.5t-64 241.5t-174.5 174.5t-241.5 64v0z" />
    <glyph glyph-name="smile" unicode="&#xe603;" 
d="M512 862q99 0 186 -37.5t152 -102t102.5 -152t37.5 -185.5q0 -99 -37.5 -186t-102.5 -152t-152 -102.5t-186 -37.5q-98 0 -185.5 37.5t-152 102.5t-102 152t-37.5 186q0 98 37.5 185.5t102 152t152 102t185.5 37.5zM685.5 625q-31.5 0 -54 -26t-22.5 -64
q0 -37 22.5 -63.5t54 -26.5t53.5 26.5t22 63.5q0 38 -22 64t-53.5 26zM331.5 623q-30.5 0 -52 -26t-21.5 -63q0 -39 21.5 -65t52 -26t52 26t21.5 65q0 37 -21.5 63t-52 26zM783 249q1 2 1 7.5t-1.5 12t-6.5 12t-14 8.5q-25 -31 -62 -55q-32 -20 -80.5 -37t-114 -17
t-111.5 17t-78 37q-36 24 -61 55q-8 -2 -12.5 -7.5t-7 -12t-2.5 -12t2 -8.5q1 -2 0.5 -2.5t0.5 -1.5q9 -29 34.5 -55t61.5 -45t81 -29.5t96 -10.5q99 0 171 36.5t99 95.5q0 2 1 4t3 8z" />
    <glyph glyph-name="apply-money" unicode="&#xe684;" horiz-adv-x="1056" 
d="M526 864q-98 0 -186.5 -38t-153 -102t-102.5 -153t-38 -186.5t38 -186.5t102.5 -153t153 -102t186.5 -38t186.5 38t153 102t102.5 153t38 186.5t-38 186.5t-102.5 153t-153 102t-186.5 38v0zM862 268q-26 -61 -73.5 -108.5t-108.5 -73.5q-64 -27 -134 -27q-127 0 -223 82
q-8 7 -9 18t6 19q8 9 20 9q9 0 16 -6q82 -70 190 -70q121 0 206 85t85 205.5t-85 206t-206 85.5q-104 0 -185.5 -67.5t-100.5 -168.5l46 40q8 7 17 7q12 0 20 -9q7 -8 6.5 -18.5t-9.5 -18.5l-98 -85q-2 -2 -4 -3v0v0q-1 -1 -2 -1v-0.5v-0.5v0h-1h-1v-1v0h-2v0v0q-1 0 -2 -1
h-1h-2v0v0h-2h-1v0v0h-1v0v0h-1v0h-1q-1 0 -1 1v0h-1v0h-1v0l-2 1v0q-2 0 -3 1v0q-1 1 -2 1v0l-1 1h-1q0 1 -1 1v0v0.5t-0.5 0.5h-0.5v0l-1 1v0q0 1 -1 1v1q-1 0 -1 0.5v0.5l-0.5 0.5l-0.5 0.5v0q0 1 -1 1v1q0 1 -1 2l-53 119q-4 10 0 19.5t13 14.5q5 2 11 2q17 0 24 -15
l17 -39q6 27 17 52q26 61 73.5 108.5t108.5 73.5q64 27 134 27t134 -27q61 -26 108.5 -73.5t73.5 -108.5q27 -64 27 -133.5t-27 -133.5v0zM671 487q6 0 6 -6v-51q0 -6 -6 -6h-94v-41h94q6 0 6 -6v-51q0 -6 -6 -6h-94v-93q0 -13 -9 -22t-22 -9t-22 9t-9 22v93h-94q-6 0 -6 6
v51q0 6 6 6h94v41h-94q-6 0 -6 6v51q0 6 6 6h50l-51 50q-9 10 -9 22.5t9 22t22 9.5t22 -10l82 -81l82 81q9 10 22 10t22 -9.5t9 -22t-9 -22.5l-51 -50h50z" />
    <glyph glyph-name="richeng" unicode="&#xe636;" 
d="M918 758h-189v76q0 12 -9 20.5t-21.5 8.5t-21 -8.5t-8.5 -20.5v-76h-287v76q0 12 -8.5 20.5t-21 8.5t-21 -8.5t-8.5 -20.5v-76h-222q-28 0 -48 -20t-20 -48v-690q0 -28 20 -48t48 -20h817q28 0 48 20t20 48v690q0 28 -20 48t-48 20zM926 0q0 -8 -8 -8h-817q-8 0 -8 8v690
q0 8 8 8h222v-69q0 -12 8.5 -21t21 -9t21 9t8.5 21v69h287v-69q0 -12 8.5 -21t21 -9t21.5 9t9 21v69h189q8 0 8 -8v-690v0zM218 419q0 -22 16.5 -38.5t39 -16.5t39 16.5t16.5 38.5v0v0q0 23 -16.5 39.5t-39 16.5t-39 -16.5t-16.5 -39.5v0zM462 419v0q0 -22 16.5 -38.5
t39.5 -16.5t39 16.5t16 38.5v0v0q0 23 -16 39.5t-39 16.5t-39.5 -16.5t-16.5 -39.5v0zM706 419v0q0 -22 16.5 -38.5t39.5 -16.5t39 16.5t16 38.5v0v0q0 23 -16 39.5t-39 16.5t-39.5 -16.5t-16.5 -39.5v0zM218 204q0 -23 16.5 -39.5t39 -16.5t39 16.5t16.5 39.5v0v0
q0 23 -16.5 39t-39 16t-39 -16t-16.5 -39v0zM462 204v0q0 -23 16.5 -39.5t39.5 -16.5t39 16.5t16 39.5v0q0 23 -16 39t-39 16t-39.5 -16t-16.5 -39v0zM706 204v0q0 -23 16.5 -39.5t39.5 -16.5t39 16.5t16 39.5v0v0q0 23 -16 39t-39 16t-39.5 -16t-16.5 -39v0z" />
    <glyph glyph-name="yumaoqiu" unicode="&#xe664;" 
d="M873 -51q-29 83 -36 102q-111 322 -150 433q-1 5 -7 5h-341h-5l-183 -542q31 -5 33 -6q29 -2 61 17q34 19 71 62q2 2 24 30q11 -37 12 -39q22 -58 73 -76q4 -1 7 1q35 17 58 47q1 1 12 16l4 -4q38 -44 92 -60q3 -1 6 1q38 27 57 65q1 2 15 36q78 -112 197 -90v2zM343 237
q-10 -76 -8 -135q1 -4 -1 -6q-39 -57 -74 -88q-29 -26 -54 -33q-1 0 -13 -2l2 6q69 205 138 411q1 3 9.5 27t12.5 36q1 4 5 4h25q-6 -29 -7 -31q-24 -109 -35 -189zM508 104q-11 -57 -36 -93q-16 -23 -41 -39q-4 -3 -9 0q-27 15 -40 50q-12 30 -14 74q-3 40 1 88
q9 99 48 268q1 5 6 5h73q5 0 5 -4q1 -14 6.5 -77t8.5 -96q0 -3 2 -43q0 -81 -10 -133zM634 19q-13 -27 -36 -47q-3 -3 -6 -1q-43 17 -71 57q-2 2 -1 5q23 57 28 138q4 71 -4 161q0 5 -11 121v4h29q3 0 4 -3q4 -12 15 -45.5t16.5 -50t14.5 -44t15 -51t12 -46.5
q14 -63 13 -111q0 -51 -18 -87zM750 4q-36 27 -66 80q-1 2 -1 4q4 62 -16 146q-14 62 -55 182q-2 7 -6.5 19t-5.5 17l-2 5h5h55q5 0 7 -4q42 -123 163 -471l2 -7q-44 2 -80 29zM373 536h140h140q17 -1 27.5 10.5t10.5 26.5q-1 16 0 77q0 47 -23 89q-27 49 -78 74t-105 15
q-63 -11 -104.5 -59t-43.5 -112q-1 -9 -1 -84q0 -17 10.5 -27t26.5 -10zM368 654q1 55 38.5 96.5t91.5 47.5q56 5 101 -28t57 -88q3 -15 3 -34v-73q0 -5 -1 -6t-6 -1h-138h-138q-6 0 -7 1t-1 7v78z" />
    <glyph glyph-name="success" unicode="&#xe7d6;" 
d="M512 864q-98 0 -186.5 -38t-153 -102.5t-102.5 -153t-38 -186.5t38 -186.5t102.5 -153t153 -102.5t186.5 -38t186.5 38t153 102.5t102.5 153t38 186.5t-38 186.5t-102.5 153t-153 102.5t-186.5 38zM742 478l-257 -258l-3 -3q-9 -9 -21 -9q-13 0 -22 9l-3 3l-130 131
q-9 8 -9 20.5t9 21.5t21 9t21 -9l113 -112l239 239q9 9 21.5 9t21 -9t8.5 -21.5t-9 -20.5z" />
  </font>
</defs>
</svg>
